name analog
datacolumns 19
datarows 39
range 0.423 0.442
endheader
time	ground_force_vx	ground_force_vy	ground_force_vz	ground_force_px	ground_force_py	ground_force_pz	l_ground_force_vx	l_ground_force_vy	l_ground_force_vz	l_ground_force_px	l_ground_force_py	l_ground_force_pz	ground_torque_x	ground_torque_y	ground_torque_z	l_ground_torque_x	l_ground_torque_y	l_ground_torque_z
0.423	-0.0	-0.0	-0.0	-5.787067413330078	3.441269874572754	-691.4949951171875	-0.0	-0.0	-0.0	-34.86570358276367	16.026208877563477	75.54532623291016	-0.0	-0.0	-0.0	-0.0	-0.0	-0.0
0.4235	-0.0	-0.0	-0.0	-4.673680782318115	2.774610042572021	-701.951904296875	-0.0	-0.0	-0.0	-35.02167510986328	15.892538070678713	77.20947265625	-0.0	-0.0	-0.0	-0.0	-0.0	-0.0
0.424	-0.0	-0.0	-0.0	-3.692328929901123	2.3569839000701904	-713.3319091796875	-0.0	-0.0	-0.0	-35.11118698120117	15.991466522216797	76.58786010742188	-0.0	-0.0	-0.0	-0.0	-0.0	-0.0
0.4245	-0.0	-0.0	-0.0	-2.777054071426392	0.3995800614356994	-724.8958129882812	-0.0	-0.0	-0.0	-34.822269439697266	16.081512451171875	76.7236328125	-0.0	-0.0	-0.0	-0.0	-0.0	-0.0
0.425	-0.0	-0.0	-0.0	-2.437725782394409	-0.9372254610061646	-731.3099975585938	-0.0	-0.0	-0.0	-34.96683883666992	16.072036743164062	77.20191955566406	-0.0	-0.0	-0.0	-0.0	-0.0	-0.0
0.4255	-0.0	-0.0	-0.0	-1.4159120321273804	-2.687793731689453	-741.995361328125	-0.0	-0.0	-0.0	-34.83351135253906	16.02604866027832	74.4912109375	-0.0	-0.0	-0.0	-0.0	-0.0	-0.0
0.426	-0.0	-0.0	-0.0	-1.2146296501159668	-3.844036102294922	-751.3948974609375	-0.0	-0.0	-0.0	-34.70988464355469	15.981806755065918	75.32087707519531	-0.0	-0.0	-0.0	-0.0	-0.0	-0.0
0.4265	-0.0	-0.0	-0.0	-1.539381742477417	-5.329041481018066	-759.5253295898438	-0.0	-0.0	-0.0	-34.83334732055664	16.148941040039062	75.85012817382812	-0.0	-0.0	-0.0	-0.0	-0.0	-0.0
0.427	-0.0	-0.0	-0.0	-2.4086837768554688	-7.843475341796875	-772.5394897460938	-0.0	-0.0	-0.0	-34.64302062988281	16.17181396484375	77.12084197998047	-0.0	-0.0	-0.0	-0.0	-0.0	-0.0
0.4275	-0.0	-0.0	-0.0	-3.0883233547210693	-9.582304954528809	-779.3008422851562	-0.0	-0.0	-0.0	-35.07899856567383	16.32988166809082	76.33055877685547	-0.0	-0.0	-0.0	-0.0	-0.0	-0.0
0.428	-0.0	-0.0	-0.0	-2.6436574459075928	-11.954773902893066	-792.0482788085938	-0.0	-0.0	-0.0	-34.90004348754883	16.441347122192383	75.41060638427734	-0.0	-0.0	-0.0	-0.0	-0.0	-0.0
0.4285	-0.0	-0.0	-0.0	-2.16359806060791	-13.949393272399902	-799.2015991210938	-0.0	-0.0	-0.0	-34.86639404296875	15.78976058959961	75.103759765625	-0.0	-0.0	-0.0	-0.0	-0.0	-0.0
0.429	-0.0	-0.0	-0.0	-2.798440456390381	-15.542436599731444	-807.0606689453125	-0.0	-0.0	-0.0	-34.97826385498047	16.059545516967773	75.84956359863281	-0.0	-0.0	-0.0	-0.0	-0.0	-0.0
0.4295	-0.0	-0.0	-0.0	-2.6095478534698486	-15.999187469482422	-812.80029296875	-0.0	-0.0	-0.0	-34.9224967956543	16.363256454467773	74.48936462402344	-0.0	-0.0	-0.0	-0.0	-0.0	-0.0
0.43	-0.0	-0.0	-0.0	-3.846975564956665	-16.09908103942871	-815.2288818359375	-0.0	-0.0	-0.0	-35.00049591064453	15.946983337402344	75.41110229492188	-0.0	-0.0	-0.0	-0.0	-0.0	-0.0
0.4305	-0.0	-0.0	-0.0	-4.193058013916016	-16.076793670654297	-816.8616333007812	-0.0	-0.0	-0.0	-35.28058242797852	15.800519943237305	75.89278411865234	-0.0	-0.0	-0.0	-0.0	-0.0	-0.0
0.431	-0.0	-0.0	-0.0	-5.40830135345459	-14.305498123168944	-818.0529174804688	-0.0	-0.0	-0.0	-34.31792449951172	15.72148895263672	77.34336853027344	-0.0	-0.0	-0.0	-0.0	-0.0	-0.0
0.4315	-0.0	-0.0	-0.0	-6.980174064636231	-12.433910369873049	-819.2017211914062	-0.0	-0.0	-0.0	-35.00032043457031	16.071292877197266	76.02682495117188	-0.0	-0.0	-0.0	-0.0	-0.0	-0.0
0.432	-0.0	-0.0	-0.0	-8.419068336486816	-10.306337356567385	-817.3480224609375	-0.0	-0.0	-0.0	-34.63145446777344	16.510061264038086	76.33456420898438	-0.0	-0.0	-0.0	-0.0	-0.0	-0.0
0.4325	-0.0	-0.0	-0.0	-9.88978385925293	-7.531900405883789	-816.5549926757812	-0.0	-0.0	-0.0	-34.89978790283203	16.11561393737793	77.78206634521484	-0.0	-0.0	-0.0	-0.0	-0.0	-0.0
0.433	-0.0	-0.0	-0.0	-11.039002418518066	-5.271829128265381	-812.3616333007812	-0.0	-0.0	-0.0	-35.03487014770508	16.589323043823242	74.92462921142578	-0.0	-0.0	-0.0	-0.0	-0.0	-0.0
0.4335	-0.0	-0.0	-0.0	-11.630316734313965	-2.506624937057495	-806.445556640625	-0.0	-0.0	-0.0	-34.899715423583984	16.22746467590332	74.79562377929688	-0.0	-0.0	-0.0	-0.0	-0.0	-0.0
0.434	-0.0	-0.0	-0.0	-11.329734802246094	-0.05625756457448	-801.104736328125	-0.0	-0.0	-0.0	-34.95646667480469	16.003633499145508	75.94284057617188	-0.0	-0.0	-0.0	-0.0	-0.0	-0.0
0.4345	-0.0	-0.0	-0.0	-10.213717460632324	2.182809591293335	-797.5738525390625	-0.0	-0.0	-0.0	-34.899662017822266	16.036439895629883	76.46495819091797	-0.0	-0.0	-0.0	-0.0	-0.0	-0.0
0.435	-0.0	-0.0	-0.0	-9.05383014678955	3.5740270614624023	-790.8561401367188	-0.0	-0.0	-0.0	-34.83181381225586	16.251850128173828	75.97550201416016	-0.0	-0.0	-0.0	-0.0	-0.0	-0.0
0.4355	-0.0	-0.0	-0.0	-6.847455978393555	4.623913764953613	-788.297607421875	-0.0	-0.0	-0.0	-34.51716232299805	15.968101501464844	74.40185546875	-0.0	-0.0	-0.0	-0.0	-0.0	-0.0
0.436	-0.0	-0.0	-0.0	-4.774011611938477	4.656439304351807	-784.3696899414062	-0.0	-0.0	-0.0	-35.02463912963867	16.104564666748047	76.38082122802734	-0.0	-0.0	-0.0	-0.0	-0.0	-0.0
0.4365	-0.0	-0.0	-0.0	-2.66831374168396	4.7131195068359375	-780.1316528320312	-0.0	-0.0	-0.0	-35.09991455078125	16.09377098083496	76.46546936035156	-0.0	-0.0	-0.0	-0.0	-0.0	-0.0
0.437	-0.0	-0.0	-0.0	0.199992373585701	3.411429643630981	-778.4939575195312	-0.0	-0.0	-0.0	-35.2144889831543	16.273727416992188	76.36681365966797	-0.0	-0.0	-0.0	-0.0	-0.0	-0.0
0.4375	-0.0	-0.0	-0.0	1.6810253858566284	2.071475982666016	-779.948974609375	-0.0	-0.0	-0.0	-34.741920471191406	16.241546630859375	75.0618667602539	-0.0	-0.0	-0.0	-0.0	-0.0	-0.0
0.438	-0.0	-0.0	-0.0	3.022446870803833	0.9590328931808472	-781.813232421875	-0.0	-0.0	-0.0	-35.12525939941406	16.205236434936523	75.18724822998047	-0.0	-0.0	-0.0	-0.0	-0.0	-0.0
0.4385	-0.0	-0.0	-0.0	2.5978033542633057	-0.531164288520813	-780.65478515625	-0.0	-0.0	-0.0	-35.003944396972656	16.24174690246582	76.1566162109375	-0.0	-0.0	-0.0	-0.0	-0.0	-0.0
0.439	-0.0	-0.0	-0.0	1.730905294418335	-1.368910312652588	-782.8577270507812	-0.0	-0.0	-0.0	-34.90998458862305	16.273853302001953	74.38330078125	-0.0	-0.0	-0.0	-0.0	-0.0	-0.0
0.4395	-0.0	-0.0	-0.0	-0.0382694751024246	-1.8292832374572756	-781.14990234375	-0.0	-0.0	-0.0	-34.87825012207031	16.453828811645508	76.8999252319336	-0.0	-0.0	-0.0	-0.0	-0.0	-0.0
0.44	-0.0	-0.0	-0.0	-2.4043192863464355	-0.9486457705497742	-779.3001708984375	-0.0	-0.0	-0.0	-35.03611373901367	16.025190353393555	74.93843078613281	-0.0	-0.0	-0.0	-0.0	-0.0	-0.0
0.4405	-0.0	-0.0	-0.0	-4.738725185394287	0.2779498100280761	-778.9476318359375	-0.0	-0.0	-0.0	-34.830841064453125	16.067384719848633	75.53707885742188	-0.0	-0.0	-0.0	-0.0	-0.0	-0.0
0.441	-0.0	-0.0	-0.0	-6.628201961517334	1.305393099784851	-776.0613403320312	-0.0	-0.0	-0.0	-34.95734405517578	16.432884216308594	75.8467025756836	-0.0	-0.0	-0.0	-0.0	-0.0	-0.0
0.4415	-0.0	-0.0	-0.0	-8.55371379852295	2.338361978530884	-774.6897583007812	-0.0	-0.0	-0.0	-35.03644561767578	16.035564422607422	75.7647705078125	-0.0	-0.0	-0.0	-0.0	-0.0	-0.0
0.442	-0.0	-0.0	-0.0	-9.655686378479004	2.721177339553833	-772.923583984375	-0.0	-0.0	-0.0	-34.83677673339844	16.104564666748047	74.3366470336914	-0.0	-0.0	-0.0	-0.0	-0.0	-0.0
